<mxfile host="www.draw.io" modified="2020-01-10T12:37:06.337Z" agent="Mozilla/5.0 (Windows NT 10.0; Win64; x64) AppleWebKit/537.36 (KHTML, like Gecko) Chrome/79.0.3945.117 Safari/537.36" etag="FCDXe9Qegi2zIDIV9Q2W" version="12.5.1" type="github">
  <diagram name="Page-1" id="9f46799a-70d6-7492-0946-bef42562c5a5">
    <mxGraphModel dx="1905" dy="2193" grid="1" gridSize="10" guides="1" tooltips="1" connect="1" arrows="1" fold="1" page="1" pageScale="1" pageWidth="1100" pageHeight="850" background="#ffffff" math="0" shadow="0">
      <root>
        <mxCell id="0"/>
        <mxCell id="1" parent="0"/>
        <mxCell id="78961159f06e98e8-17" value="Rail" style="swimlane;html=1;fontStyle=1;align=center;verticalAlign=top;childLayout=stackLayout;horizontal=1;startSize=26;horizontalStack=0;resizeParent=1;resizeLast=0;collapsible=1;marginBottom=0;swimlaneFillColor=#ffffff;rounded=0;shadow=0;comic=0;labelBackgroundColor=none;strokeWidth=1;fillColor=none;fontFamily=Verdana;fontSize=12" parent="1" vertex="1">
          <mxGeometry x="530" width="230" height="450" as="geometry">
            <mxRectangle x="90" y="83" width="60" height="26" as="alternateBounds"/>
          </mxGeometry>
        </mxCell>
        <mxCell id="78961159f06e98e8-21" value="- index: int" style="text;html=1;strokeColor=none;fillColor=none;align=left;verticalAlign=top;spacingLeft=4;spacingRight=4;whiteSpace=wrap;overflow=hidden;rotatable=0;points=[[0,0.5],[1,0.5]];portConstraint=eastwest;" parent="78961159f06e98e8-17" vertex="1">
          <mxGeometry y="26" width="230" height="26" as="geometry"/>
        </mxCell>
        <mxCell id="4japjeftp3ALHUGcXtgO-39" value="- forward: int" style="text;html=1;strokeColor=none;fillColor=none;align=left;verticalAlign=top;spacingLeft=4;spacingRight=4;whiteSpace=wrap;overflow=hidden;rotatable=0;points=[[0,0.5],[1,0.5]];portConstraint=eastwest;" parent="78961159f06e98e8-17" vertex="1">
          <mxGeometry y="52" width="230" height="26" as="geometry"/>
        </mxCell>
        <mxCell id="4japjeftp3ALHUGcXtgO-40" value="- station: Station" style="text;html=1;strokeColor=none;fillColor=none;align=left;verticalAlign=top;spacingLeft=4;spacingRight=4;whiteSpace=wrap;overflow=hidden;rotatable=0;points=[[0,0.5],[1,0.5]];portConstraint=eastwest;" parent="78961159f06e98e8-17" vertex="1">
          <mxGeometry y="78" width="230" height="26" as="geometry"/>
        </mxCell>
        <mxCell id="4japjeftp3ALHUGcXtgO-41" value="- trains: List&amp;lt;Train&amp;gt;" style="text;html=1;strokeColor=none;fillColor=none;align=left;verticalAlign=top;spacingLeft=4;spacingRight=4;whiteSpace=wrap;overflow=hidden;rotatable=0;points=[[0,0.5],[1,0.5]];portConstraint=eastwest;" parent="78961159f06e98e8-17" vertex="1">
          <mxGeometry y="104" width="230" height="26" as="geometry"/>
        </mxCell>
        <mxCell id="4japjeftp3ALHUGcXtgO-42" value="- wagons: List&amp;lt;Wagon&amp;gt;" style="text;html=1;strokeColor=none;fillColor=none;align=left;verticalAlign=top;spacingLeft=4;spacingRight=4;whiteSpace=wrap;overflow=hidden;rotatable=0;points=[[0,0.5],[1,0.5]];portConstraint=eastwest;" parent="78961159f06e98e8-17" vertex="1">
          <mxGeometry y="130" width="230" height="26" as="geometry"/>
        </mxCell>
        <mxCell id="78961159f06e98e8-19" value="" style="line;html=1;strokeWidth=1;fillColor=none;align=left;verticalAlign=middle;spacingTop=-1;spacingLeft=3;spacingRight=3;rotatable=0;labelPosition=right;points=[];portConstraint=eastwest;" parent="78961159f06e98e8-17" vertex="1">
          <mxGeometry y="156" width="230" height="8" as="geometry"/>
        </mxCell>
        <mxCell id="78961159f06e98e8-20" value="+ Rail(forward : int, index : int): Rail" style="text;html=1;strokeColor=none;fillColor=none;align=left;verticalAlign=top;spacingLeft=4;spacingRight=4;whiteSpace=wrap;overflow=hidden;rotatable=0;points=[[0,0.5],[1,0.5]];portConstraint=eastwest;" parent="78961159f06e98e8-17" vertex="1">
          <mxGeometry y="164" width="230" height="26" as="geometry"/>
        </mxCell>
        <mxCell id="4japjeftp3ALHUGcXtgO-49" value="+ AddStation(station: Station): void" style="text;html=1;strokeColor=none;fillColor=none;align=left;verticalAlign=top;spacingLeft=4;spacingRight=4;whiteSpace=wrap;overflow=hidden;rotatable=0;points=[[0,0.5],[1,0.5]];portConstraint=eastwest;" parent="78961159f06e98e8-17" vertex="1">
          <mxGeometry y="190" width="230" height="26" as="geometry"/>
        </mxCell>
        <mxCell id="4japjeftp3ALHUGcXtgO-50" value="+ GetStation(): Station" style="text;html=1;strokeColor=none;fillColor=none;align=left;verticalAlign=top;spacingLeft=4;spacingRight=4;whiteSpace=wrap;overflow=hidden;rotatable=0;points=[[0,0.5],[1,0.5]];portConstraint=eastwest;" parent="78961159f06e98e8-17" vertex="1">
          <mxGeometry y="216" width="230" height="26" as="geometry"/>
        </mxCell>
        <mxCell id="ECuA8mzcgDLiyCMyC_pY-1" value="+ GetIndex(): int" style="text;html=1;strokeColor=none;fillColor=none;align=left;verticalAlign=top;spacingLeft=4;spacingRight=4;whiteSpace=wrap;overflow=hidden;rotatable=0;points=[[0,0.5],[1,0.5]];portConstraint=eastwest;" parent="78961159f06e98e8-17" vertex="1">
          <mxGeometry y="242" width="230" height="26" as="geometry"/>
        </mxCell>
        <mxCell id="4japjeftp3ALHUGcXtgO-52" value="+ IsClear(): bool" style="text;html=1;strokeColor=none;fillColor=none;align=left;verticalAlign=top;spacingLeft=4;spacingRight=4;whiteSpace=wrap;overflow=hidden;rotatable=0;points=[[0,0.5],[1,0.5]];portConstraint=eastwest;" parent="78961159f06e98e8-17" vertex="1">
          <mxGeometry y="268" width="230" height="26" as="geometry"/>
        </mxCell>
        <mxCell id="4japjeftp3ALHUGcXtgO-54" value="+ AddTrain(train : Train): void" style="text;html=1;strokeColor=none;fillColor=none;align=left;verticalAlign=top;spacingLeft=4;spacingRight=4;whiteSpace=wrap;overflow=hidden;rotatable=0;points=[[0,0.5],[1,0.5]];portConstraint=eastwest;" parent="78961159f06e98e8-17" vertex="1">
          <mxGeometry y="294" width="230" height="26" as="geometry"/>
        </mxCell>
        <mxCell id="4japjeftp3ALHUGcXtgO-55" value="+ AddWagon(wagon: Wagon): void" style="text;html=1;strokeColor=none;fillColor=none;align=left;verticalAlign=top;spacingLeft=4;spacingRight=4;whiteSpace=wrap;overflow=hidden;rotatable=0;points=[[0,0.5],[1,0.5]];portConstraint=eastwest;" parent="78961159f06e98e8-17" vertex="1">
          <mxGeometry y="320" width="230" height="26" as="geometry"/>
        </mxCell>
        <mxCell id="4japjeftp3ALHUGcXtgO-56" value="+ RemoveWagon(wagon: Wagon): void" style="text;html=1;strokeColor=none;fillColor=none;align=left;verticalAlign=top;spacingLeft=4;spacingRight=4;whiteSpace=wrap;overflow=hidden;rotatable=0;points=[[0,0.5],[1,0.5]];portConstraint=eastwest;" parent="78961159f06e98e8-17" vertex="1">
          <mxGeometry y="346" width="230" height="26" as="geometry"/>
        </mxCell>
        <mxCell id="4japjeftp3ALHUGcXtgO-57" value="+ GetWagon(): Wagon" style="text;html=1;strokeColor=none;fillColor=none;align=left;verticalAlign=top;spacingLeft=4;spacingRight=4;whiteSpace=wrap;overflow=hidden;rotatable=0;points=[[0,0.5],[1,0.5]];portConstraint=eastwest;" parent="78961159f06e98e8-17" vertex="1">
          <mxGeometry y="372" width="230" height="26" as="geometry"/>
        </mxCell>
        <mxCell id="4japjeftp3ALHUGcXtgO-58" value="+ RemoveTrain(train : Train): void" style="text;html=1;strokeColor=none;fillColor=none;align=left;verticalAlign=top;spacingLeft=4;spacingRight=4;whiteSpace=wrap;overflow=hidden;rotatable=0;points=[[0,0.5],[1,0.5]];portConstraint=eastwest;" parent="78961159f06e98e8-17" vertex="1">
          <mxGeometry y="398" width="230" height="26" as="geometry"/>
        </mxCell>
        <mxCell id="4japjeftp3ALHUGcXtgO-59" value="+ GetTrains(): List&amp;lt;Train&amp;gt;" style="text;html=1;strokeColor=none;fillColor=none;align=left;verticalAlign=top;spacingLeft=4;spacingRight=4;whiteSpace=wrap;overflow=hidden;rotatable=0;points=[[0,0.5],[1,0.5]];portConstraint=eastwest;" parent="78961159f06e98e8-17" vertex="1">
          <mxGeometry y="424" width="230" height="26" as="geometry"/>
        </mxCell>
        <mxCell id="4japjeftp3ALHUGcXtgO-61" value="Train" style="swimlane;html=1;fontStyle=1;align=center;verticalAlign=top;childLayout=stackLayout;horizontal=1;startSize=26;horizontalStack=0;resizeParent=1;resizeLast=0;collapsible=1;marginBottom=0;swimlaneFillColor=#ffffff;rounded=0;shadow=0;comic=0;labelBackgroundColor=none;strokeWidth=1;fillColor=none;fontFamily=Verdana;fontSize=12" parent="1" vertex="1">
          <mxGeometry x="910" y="-0.5" width="380" height="528" as="geometry">
            <mxRectangle x="90" y="83" width="60" height="26" as="alternateBounds"/>
          </mxGeometry>
        </mxCell>
        <mxCell id="4japjeftp3ALHUGcXtgO-62" value="- name: string" style="text;html=1;strokeColor=none;fillColor=none;align=left;verticalAlign=top;spacingLeft=4;spacingRight=4;whiteSpace=wrap;overflow=hidden;rotatable=0;points=[[0,0.5],[1,0.5]];portConstraint=eastwest;" parent="4japjeftp3ALHUGcXtgO-61" vertex="1">
          <mxGeometry y="26" width="380" height="26" as="geometry"/>
        </mxCell>
        <mxCell id="4japjeftp3ALHUGcXtgO-63" value="- intercity: bool" style="text;html=1;strokeColor=none;fillColor=none;align=left;verticalAlign=top;spacingLeft=4;spacingRight=4;whiteSpace=wrap;overflow=hidden;rotatable=0;points=[[0,0.5],[1,0.5]];portConstraint=eastwest;" parent="4japjeftp3ALHUGcXtgO-61" vertex="1">
          <mxGeometry y="52" width="380" height="26" as="geometry"/>
        </mxCell>
        <mxCell id="4japjeftp3ALHUGcXtgO-64" value="- rail: Rail" style="text;html=1;strokeColor=none;fillColor=none;align=left;verticalAlign=top;spacingLeft=4;spacingRight=4;whiteSpace=wrap;overflow=hidden;rotatable=0;points=[[0,0.5],[1,0.5]];portConstraint=eastwest;" parent="4japjeftp3ALHUGcXtgO-61" vertex="1">
          <mxGeometry y="78" width="380" height="26" as="geometry"/>
        </mxCell>
        <mxCell id="4japjeftp3ALHUGcXtgO-79" value="- color: Color" style="text;html=1;strokeColor=none;fillColor=none;align=left;verticalAlign=top;spacingLeft=4;spacingRight=4;whiteSpace=wrap;overflow=hidden;rotatable=0;points=[[0,0.5],[1,0.5]];portConstraint=eastwest;" parent="4japjeftp3ALHUGcXtgO-61" vertex="1">
          <mxGeometry y="104" width="380" height="26" as="geometry"/>
        </mxCell>
        <mxCell id="4japjeftp3ALHUGcXtgO-80" value="- route: Station[]" style="text;html=1;strokeColor=none;fillColor=none;align=left;verticalAlign=top;spacingLeft=4;spacingRight=4;whiteSpace=wrap;overflow=hidden;rotatable=0;points=[[0,0.5],[1,0.5]];portConstraint=eastwest;" parent="4japjeftp3ALHUGcXtgO-61" vertex="1">
          <mxGeometry y="130" width="380" height="26" as="geometry"/>
        </mxCell>
        <mxCell id="4japjeftp3ALHUGcXtgO-81" value="- nextDestination: int" style="text;html=1;strokeColor=none;fillColor=none;align=left;verticalAlign=top;spacingLeft=4;spacingRight=4;whiteSpace=wrap;overflow=hidden;rotatable=0;points=[[0,0.5],[1,0.5]];portConstraint=eastwest;" parent="4japjeftp3ALHUGcXtgO-61" vertex="1">
          <mxGeometry y="156" width="380" height="26" as="geometry"/>
        </mxCell>
        <mxCell id="4japjeftp3ALHUGcXtgO-82" value="- inStation: bool" style="text;html=1;strokeColor=none;fillColor=none;align=left;verticalAlign=top;spacingLeft=4;spacingRight=4;whiteSpace=wrap;overflow=hidden;rotatable=0;points=[[0,0.5],[1,0.5]];portConstraint=eastwest;" parent="4japjeftp3ALHUGcXtgO-61" vertex="1">
          <mxGeometry y="182" width="380" height="26" as="geometry"/>
        </mxCell>
        <mxCell id="4japjeftp3ALHUGcXtgO-83" value="- wagons: Wagon[]" style="text;html=1;strokeColor=none;fillColor=none;align=left;verticalAlign=top;spacingLeft=4;spacingRight=4;whiteSpace=wrap;overflow=hidden;rotatable=0;points=[[0,0.5],[1,0.5]];portConstraint=eastwest;" parent="4japjeftp3ALHUGcXtgO-61" vertex="1">
          <mxGeometry y="208" width="380" height="26" as="geometry"/>
        </mxCell>
        <mxCell id="ECuA8mzcgDLiyCMyC_pY-2" value="- r: Random" style="text;html=1;strokeColor=none;fillColor=none;align=left;verticalAlign=top;spacingLeft=4;spacingRight=4;whiteSpace=wrap;overflow=hidden;rotatable=0;points=[[0,0.5],[1,0.5]];portConstraint=eastwest;" parent="4japjeftp3ALHUGcXtgO-61" vertex="1">
          <mxGeometry y="234" width="380" height="26" as="geometry"/>
        </mxCell>
        <mxCell id="4japjeftp3ALHUGcXtgO-67" value="" style="line;html=1;strokeWidth=1;fillColor=none;align=left;verticalAlign=middle;spacingTop=-1;spacingLeft=3;spacingRight=3;rotatable=0;labelPosition=right;points=[];portConstraint=eastwest;" parent="4japjeftp3ALHUGcXtgO-61" vertex="1">
          <mxGeometry y="260" width="380" height="8" as="geometry"/>
        </mxCell>
        <mxCell id="4japjeftp3ALHUGcXtgO-68" value="+ Train(name:string, color:Color, intercity:bool, route:Station[]): Train" style="text;html=1;strokeColor=none;fillColor=none;align=left;verticalAlign=top;spacingLeft=4;spacingRight=4;whiteSpace=wrap;overflow=hidden;rotatable=0;points=[[0,0.5],[1,0.5]];portConstraint=eastwest;" parent="4japjeftp3ALHUGcXtgO-61" vertex="1">
          <mxGeometry y="268" width="380" height="26" as="geometry"/>
        </mxCell>
        <mxCell id="4japjeftp3ALHUGcXtgO-69" value="+ SetRail(rail:Rail): void" style="text;html=1;strokeColor=none;fillColor=none;align=left;verticalAlign=top;spacingLeft=4;spacingRight=4;whiteSpace=wrap;overflow=hidden;rotatable=0;points=[[0,0.5],[1,0.5]];portConstraint=eastwest;" parent="4japjeftp3ALHUGcXtgO-61" vertex="1">
          <mxGeometry y="294" width="380" height="26" as="geometry"/>
        </mxCell>
        <mxCell id="4japjeftp3ALHUGcXtgO-70" value="- SetNext Destination(): void" style="text;html=1;strokeColor=none;fillColor=none;align=left;verticalAlign=top;spacingLeft=4;spacingRight=4;whiteSpace=wrap;overflow=hidden;rotatable=0;points=[[0,0.5],[1,0.5]];portConstraint=eastwest;" parent="4japjeftp3ALHUGcXtgO-61" vertex="1">
          <mxGeometry y="320" width="380" height="26" as="geometry"/>
        </mxCell>
        <mxCell id="4japjeftp3ALHUGcXtgO-71" value="+ Arrived(): bool" style="text;html=1;strokeColor=none;fillColor=none;align=left;verticalAlign=top;spacingLeft=4;spacingRight=4;whiteSpace=wrap;overflow=hidden;rotatable=0;points=[[0,0.5],[1,0.5]];portConstraint=eastwest;" parent="4japjeftp3ALHUGcXtgO-61" vertex="1">
          <mxGeometry y="346" width="380" height="26" as="geometry"/>
        </mxCell>
        <mxCell id="4japjeftp3ALHUGcXtgO-72" value="+ Arrive(): void" style="text;html=1;strokeColor=none;fillColor=none;align=left;verticalAlign=top;spacingLeft=4;spacingRight=4;whiteSpace=wrap;overflow=hidden;rotatable=0;points=[[0,0.5],[1,0.5]];portConstraint=eastwest;" parent="4japjeftp3ALHUGcXtgO-61" vertex="1">
          <mxGeometry y="372" width="380" height="26" as="geometry"/>
        </mxCell>
        <mxCell id="4japjeftp3ALHUGcXtgO-73" value="+ NeedsToGoForward(): bool" style="text;html=1;strokeColor=none;fillColor=none;align=left;verticalAlign=top;spacingLeft=4;spacingRight=4;whiteSpace=wrap;overflow=hidden;rotatable=0;points=[[0,0.5],[1,0.5]];portConstraint=eastwest;" parent="4japjeftp3ALHUGcXtgO-61" vertex="1">
          <mxGeometry y="398" width="380" height="26" as="geometry"/>
        </mxCell>
        <mxCell id="4japjeftp3ALHUGcXtgO-74" value="+ GetRail(): Rail" style="text;html=1;strokeColor=none;fillColor=none;align=left;verticalAlign=top;spacingLeft=4;spacingRight=4;whiteSpace=wrap;overflow=hidden;rotatable=0;points=[[0,0.5],[1,0.5]];portConstraint=eastwest;" parent="4japjeftp3ALHUGcXtgO-61" vertex="1">
          <mxGeometry y="424" width="380" height="26" as="geometry"/>
        </mxCell>
        <mxCell id="4japjeftp3ALHUGcXtgO-75" value="+ IsInStation(): bool" style="text;html=1;strokeColor=none;fillColor=none;align=left;verticalAlign=top;spacingLeft=4;spacingRight=4;whiteSpace=wrap;overflow=hidden;rotatable=0;points=[[0,0.5],[1,0.5]];portConstraint=eastwest;" parent="4japjeftp3ALHUGcXtgO-61" vertex="1">
          <mxGeometry y="450" width="380" height="26" as="geometry"/>
        </mxCell>
        <mxCell id="4japjeftp3ALHUGcXtgO-76" value="+ IsIntercity(): bool" style="text;html=1;strokeColor=none;fillColor=none;align=left;verticalAlign=top;spacingLeft=4;spacingRight=4;whiteSpace=wrap;overflow=hidden;rotatable=0;points=[[0,0.5],[1,0.5]];portConstraint=eastwest;" parent="4japjeftp3ALHUGcXtgO-61" vertex="1">
          <mxGeometry y="476" width="380" height="26" as="geometry"/>
        </mxCell>
        <mxCell id="4japjeftp3ALHUGcXtgO-77" value="+ GetColor(): Color" style="text;html=1;strokeColor=none;fillColor=none;align=left;verticalAlign=top;spacingLeft=4;spacingRight=4;whiteSpace=wrap;overflow=hidden;rotatable=0;points=[[0,0.5],[1,0.5]];portConstraint=eastwest;" parent="4japjeftp3ALHUGcXtgO-61" vertex="1">
          <mxGeometry y="502" width="380" height="26" as="geometry"/>
        </mxCell>
        <mxCell id="dSkPaAIi-SsUXHrledxw-2" value="Station" style="swimlane;html=1;fontStyle=1;align=center;verticalAlign=top;childLayout=stackLayout;horizontal=1;startSize=26;horizontalStack=0;resizeParent=1;resizeLast=0;collapsible=1;marginBottom=0;swimlaneFillColor=#ffffff;rounded=0;shadow=0;comic=0;labelBackgroundColor=none;strokeWidth=1;fillColor=none;fontFamily=Verdana;fontSize=12" vertex="1" parent="1">
          <mxGeometry x="1420" width="420" height="398" as="geometry">
            <mxRectangle x="90" y="83" width="60" height="26" as="alternateBounds"/>
          </mxGeometry>
        </mxCell>
        <mxCell id="dSkPaAIi-SsUXHrledxw-3" value="- name: string" style="text;html=1;strokeColor=none;fillColor=none;align=left;verticalAlign=top;spacingLeft=4;spacingRight=4;whiteSpace=wrap;overflow=hidden;rotatable=0;points=[[0,0.5],[1,0.5]];portConstraint=eastwest;" vertex="1" parent="dSkPaAIi-SsUXHrledxw-2">
          <mxGeometry y="26" width="420" height="26" as="geometry"/>
        </mxCell>
        <mxCell id="dSkPaAIi-SsUXHrledxw-4" value="- centralStation: bool" style="text;html=1;strokeColor=none;fillColor=none;align=left;verticalAlign=top;spacingLeft=4;spacingRight=4;whiteSpace=wrap;overflow=hidden;rotatable=0;points=[[0,0.5],[1,0.5]];portConstraint=eastwest;" vertex="1" parent="dSkPaAIi-SsUXHrledxw-2">
          <mxGeometry y="52" width="420" height="26" as="geometry"/>
        </mxCell>
        <mxCell id="dSkPaAIi-SsUXHrledxw-23" value="- trains: List&amp;lt;Train&amp;gt;" style="text;html=1;strokeColor=none;fillColor=none;align=left;verticalAlign=top;spacingLeft=4;spacingRight=4;whiteSpace=wrap;overflow=hidden;rotatable=0;points=[[0,0.5],[1,0.5]];portConstraint=eastwest;" vertex="1" parent="dSkPaAIi-SsUXHrledxw-2">
          <mxGeometry y="78" width="420" height="26" as="geometry"/>
        </mxCell>
        <mxCell id="dSkPaAIi-SsUXHrledxw-25" value="- trainWaitTime: List&amp;lt;int&amp;gt;" style="text;html=1;strokeColor=none;fillColor=none;align=left;verticalAlign=top;spacingLeft=4;spacingRight=4;whiteSpace=wrap;overflow=hidden;rotatable=0;points=[[0,0.5],[1,0.5]];portConstraint=eastwest;" vertex="1" parent="dSkPaAIi-SsUXHrledxw-2">
          <mxGeometry y="104" width="420" height="26" as="geometry"/>
        </mxCell>
        <mxCell id="dSkPaAIi-SsUXHrledxw-26" value="- rails: Rail[,]" style="text;html=1;strokeColor=none;fillColor=none;align=left;verticalAlign=top;spacingLeft=4;spacingRight=4;whiteSpace=wrap;overflow=hidden;rotatable=0;points=[[0,0.5],[1,0.5]];portConstraint=eastwest;" vertex="1" parent="dSkPaAIi-SsUXHrledxw-2">
          <mxGeometry y="130" width="420" height="26" as="geometry"/>
        </mxCell>
        <mxCell id="dSkPaAIi-SsUXHrledxw-12" value="" style="line;html=1;strokeWidth=1;fillColor=none;align=left;verticalAlign=middle;spacingTop=-1;spacingLeft=3;spacingRight=3;rotatable=0;labelPosition=right;points=[];portConstraint=eastwest;" vertex="1" parent="dSkPaAIi-SsUXHrledxw-2">
          <mxGeometry y="156" width="420" height="8" as="geometry"/>
        </mxCell>
        <mxCell id="dSkPaAIi-SsUXHrledxw-13" value="+ Station(name:string, centralStaiton:bool, startIndex:int, rails:Rail[,]): Station" style="text;html=1;strokeColor=none;fillColor=none;align=left;verticalAlign=top;spacingLeft=4;spacingRight=4;whiteSpace=wrap;overflow=hidden;rotatable=0;points=[[0,0.5],[1,0.5]];portConstraint=eastwest;" vertex="1" parent="dSkPaAIi-SsUXHrledxw-2">
          <mxGeometry y="164" width="420" height="26" as="geometry"/>
        </mxCell>
        <mxCell id="dSkPaAIi-SsUXHrledxw-14" value="+ AddTrain(train:Train): void" style="text;html=1;strokeColor=none;fillColor=none;align=left;verticalAlign=top;spacingLeft=4;spacingRight=4;whiteSpace=wrap;overflow=hidden;rotatable=0;points=[[0,0.5],[1,0.5]];portConstraint=eastwest;" vertex="1" parent="dSkPaAIi-SsUXHrledxw-2">
          <mxGeometry y="190" width="420" height="26" as="geometry"/>
        </mxCell>
        <mxCell id="dSkPaAIi-SsUXHrledxw-15" value="+ DepartTrain(train:Train): void" style="text;html=1;strokeColor=none;fillColor=none;align=left;verticalAlign=top;spacingLeft=4;spacingRight=4;whiteSpace=wrap;overflow=hidden;rotatable=0;points=[[0,0.5],[1,0.5]];portConstraint=eastwest;" vertex="1" parent="dSkPaAIi-SsUXHrledxw-2">
          <mxGeometry y="216" width="420" height="26" as="geometry"/>
        </mxCell>
        <mxCell id="dSkPaAIi-SsUXHrledxw-16" value="+ GetRailIndex(): int" style="text;html=1;strokeColor=none;fillColor=none;align=left;verticalAlign=top;spacingLeft=4;spacingRight=4;whiteSpace=wrap;overflow=hidden;rotatable=0;points=[[0,0.5],[1,0.5]];portConstraint=eastwest;" vertex="1" parent="dSkPaAIi-SsUXHrledxw-2">
          <mxGeometry y="242" width="420" height="26" as="geometry"/>
        </mxCell>
        <mxCell id="dSkPaAIi-SsUXHrledxw-17" value="+ GetRail(): Rail" style="text;html=1;strokeColor=none;fillColor=none;align=left;verticalAlign=top;spacingLeft=4;spacingRight=4;whiteSpace=wrap;overflow=hidden;rotatable=0;points=[[0,0.5],[1,0.5]];portConstraint=eastwest;" vertex="1" parent="dSkPaAIi-SsUXHrledxw-2">
          <mxGeometry y="268" width="420" height="26" as="geometry"/>
        </mxCell>
        <mxCell id="dSkPaAIi-SsUXHrledxw-18" value="+ Arrived(train:Train): bool" style="text;html=1;strokeColor=none;fillColor=none;align=left;verticalAlign=top;spacingLeft=4;spacingRight=4;whiteSpace=wrap;overflow=hidden;rotatable=0;points=[[0,0.5],[1,0.5]];portConstraint=eastwest;" vertex="1" parent="dSkPaAIi-SsUXHrledxw-2">
          <mxGeometry y="294" width="420" height="26" as="geometry"/>
        </mxCell>
        <mxCell id="dSkPaAIi-SsUXHrledxw-19" value="+ ReadytoDepart(train:Train): bool" style="text;html=1;strokeColor=none;fillColor=none;align=left;verticalAlign=top;spacingLeft=4;spacingRight=4;whiteSpace=wrap;overflow=hidden;rotatable=0;points=[[0,0.5],[1,0.5]];portConstraint=eastwest;" vertex="1" parent="dSkPaAIi-SsUXHrledxw-2">
          <mxGeometry y="320" width="420" height="26" as="geometry"/>
        </mxCell>
        <mxCell id="dSkPaAIi-SsUXHrledxw-20" value="- MoveTrain(train:Train, allRails:Rail[]): void" style="text;html=1;strokeColor=none;fillColor=none;align=left;verticalAlign=top;spacingLeft=4;spacingRight=4;whiteSpace=wrap;overflow=hidden;rotatable=0;points=[[0,0.5],[1,0.5]];portConstraint=eastwest;" vertex="1" parent="dSkPaAIi-SsUXHrledxw-2">
          <mxGeometry y="346" width="420" height="26" as="geometry"/>
        </mxCell>
        <mxCell id="dSkPaAIi-SsUXHrledxw-21" value="+ CentralStation(): bool" style="text;html=1;strokeColor=none;fillColor=none;align=left;verticalAlign=top;spacingLeft=4;spacingRight=4;whiteSpace=wrap;overflow=hidden;rotatable=0;points=[[0,0.5],[1,0.5]];portConstraint=eastwest;" vertex="1" parent="dSkPaAIi-SsUXHrledxw-2">
          <mxGeometry y="372" width="420" height="26" as="geometry"/>
        </mxCell>
        <mxCell id="dSkPaAIi-SsUXHrledxw-27" value="TrainBehaviour" style="swimlane;html=1;fontStyle=1;align=center;verticalAlign=top;childLayout=stackLayout;horizontal=1;startSize=26;horizontalStack=0;resizeParent=1;resizeLast=0;collapsible=1;marginBottom=0;swimlaneFillColor=#ffffff;rounded=0;shadow=0;comic=0;labelBackgroundColor=none;strokeWidth=1;fillColor=none;fontFamily=Verdana;fontSize=12" vertex="1" parent="1">
          <mxGeometry x="1000" y="-410" width="200" height="277" as="geometry">
            <mxRectangle x="90" y="83" width="60" height="26" as="alternateBounds"/>
          </mxGeometry>
        </mxCell>
        <mxCell id="dSkPaAIi-SsUXHrledxw-28" value="- clearSpace:int" style="text;html=1;strokeColor=none;fillColor=none;align=left;verticalAlign=top;spacingLeft=4;spacingRight=4;whiteSpace=wrap;overflow=hidden;rotatable=0;points=[[0,0.5],[1,0.5]];portConstraint=eastwest;" vertex="1" parent="dSkPaAIi-SsUXHrledxw-27">
          <mxGeometry y="26" width="200" height="26" as="geometry"/>
        </mxCell>
        <mxCell id="dSkPaAIi-SsUXHrledxw-29" value="- rails:Rail[,]" style="text;html=1;strokeColor=none;fillColor=none;align=left;verticalAlign=top;spacingLeft=4;spacingRight=4;whiteSpace=wrap;overflow=hidden;rotatable=0;points=[[0,0.5],[1,0.5]];portConstraint=eastwest;" vertex="1" parent="dSkPaAIi-SsUXHrledxw-27">
          <mxGeometry y="52" width="200" height="26" as="geometry"/>
        </mxCell>
        <mxCell id="dSkPaAIi-SsUXHrledxw-30" value="- stations:List&amp;lt;Station&amp;gt;" style="text;html=1;strokeColor=none;fillColor=none;align=left;verticalAlign=top;spacingLeft=4;spacingRight=4;whiteSpace=wrap;overflow=hidden;rotatable=0;points=[[0,0.5],[1,0.5]];portConstraint=eastwest;" vertex="1" parent="dSkPaAIi-SsUXHrledxw-27">
          <mxGeometry y="78" width="200" height="26" as="geometry"/>
        </mxCell>
        <mxCell id="dSkPaAIi-SsUXHrledxw-31" value="- trains:List&amp;lt;Train&amp;gt;" style="text;html=1;strokeColor=none;fillColor=none;align=left;verticalAlign=top;spacingLeft=4;spacingRight=4;whiteSpace=wrap;overflow=hidden;rotatable=0;points=[[0,0.5],[1,0.5]];portConstraint=eastwest;" vertex="1" parent="dSkPaAIi-SsUXHrledxw-27">
          <mxGeometry y="104" width="200" height="26" as="geometry"/>
        </mxCell>
        <mxCell id="dSkPaAIi-SsUXHrledxw-33" value="" style="line;html=1;strokeWidth=1;fillColor=none;align=left;verticalAlign=middle;spacingTop=-1;spacingLeft=3;spacingRight=3;rotatable=0;labelPosition=right;points=[];portConstraint=eastwest;" vertex="1" parent="dSkPaAIi-SsUXHrledxw-27">
          <mxGeometry y="130" width="200" height="8" as="geometry"/>
        </mxCell>
        <mxCell id="dSkPaAIi-SsUXHrledxw-34" value="+ TrainBehaviour():TrainBehaviour" style="text;html=1;strokeColor=none;fillColor=none;align=left;verticalAlign=top;spacingLeft=4;spacingRight=4;whiteSpace=wrap;overflow=hidden;rotatable=0;points=[[0,0.5],[1,0.5]];portConstraint=eastwest;" vertex="1" parent="dSkPaAIi-SsUXHrledxw-27">
          <mxGeometry y="138" width="200" height="26" as="geometry"/>
        </mxCell>
        <mxCell id="dSkPaAIi-SsUXHrledxw-35" value="+ MoveTrains():void" style="text;html=1;strokeColor=none;fillColor=none;align=left;verticalAlign=top;spacingLeft=4;spacingRight=4;whiteSpace=wrap;overflow=hidden;rotatable=0;points=[[0,0.5],[1,0.5]];portConstraint=eastwest;" vertex="1" parent="dSkPaAIi-SsUXHrledxw-27">
          <mxGeometry y="164" width="200" height="26" as="geometry"/>
        </mxCell>
        <mxCell id="dSkPaAIi-SsUXHrledxw-36" value="+ GetRails():Rail[,]" style="text;html=1;strokeColor=none;fillColor=none;align=left;verticalAlign=top;spacingLeft=4;spacingRight=4;whiteSpace=wrap;overflow=hidden;rotatable=0;points=[[0,0.5],[1,0.5]];portConstraint=eastwest;" vertex="1" parent="dSkPaAIi-SsUXHrledxw-27">
          <mxGeometry y="190" width="200" height="26" as="geometry"/>
        </mxCell>
        <mxCell id="dSkPaAIi-SsUXHrledxw-37" value="+ GetStation(i:int): Station" style="text;html=1;strokeColor=none;fillColor=none;align=left;verticalAlign=top;spacingLeft=4;spacingRight=4;whiteSpace=wrap;overflow=hidden;rotatable=0;points=[[0,0.5],[1,0.5]];portConstraint=eastwest;" vertex="1" parent="dSkPaAIi-SsUXHrledxw-27">
          <mxGeometry y="216" width="200" height="26" as="geometry"/>
        </mxCell>
        <mxCell id="dSkPaAIi-SsUXHrledxw-38" value="+ StationStr(): string" style="text;html=1;strokeColor=none;fillColor=none;align=left;verticalAlign=top;spacingLeft=4;spacingRight=4;whiteSpace=wrap;overflow=hidden;rotatable=0;points=[[0,0.5],[1,0.5]];portConstraint=eastwest;" vertex="1" parent="dSkPaAIi-SsUXHrledxw-27">
          <mxGeometry y="242" width="200" height="26" as="geometry"/>
        </mxCell>
        <mxCell id="dSkPaAIi-SsUXHrledxw-46" value="" style="endArrow=classic;html=1;exitX=0;exitY=0.5;exitDx=0;exitDy=0;entryX=0.5;entryY=0;entryDx=0;entryDy=0;" edge="1" parent="1" source="dSkPaAIi-SsUXHrledxw-29" target="78961159f06e98e8-17">
          <mxGeometry width="50" height="50" relative="1" as="geometry">
            <mxPoint x="270" y="-160" as="sourcePoint"/>
            <mxPoint x="320" y="-210" as="targetPoint"/>
            <Array as="points">
              <mxPoint x="960" y="-345"/>
              <mxPoint x="960" y="-120"/>
              <mxPoint x="645" y="-120"/>
            </Array>
          </mxGeometry>
        </mxCell>
        <mxCell id="dSkPaAIi-SsUXHrledxw-57" value="240" style="text;html=1;align=center;verticalAlign=middle;resizable=0;points=[];labelBackgroundColor=#ffffff;" vertex="1" connectable="0" parent="dSkPaAIi-SsUXHrledxw-46">
          <mxGeometry x="0.5742" relative="1" as="geometry">
            <mxPoint x="-4.41" as="offset"/>
          </mxGeometry>
        </mxCell>
        <mxCell id="dSkPaAIi-SsUXHrledxw-47" value="" style="endArrow=classic;html=1;exitX=1;exitY=0.5;exitDx=0;exitDy=0;entryX=0.5;entryY=0;entryDx=0;entryDy=0;" edge="1" parent="1" source="4japjeftp3ALHUGcXtgO-40" target="dSkPaAIi-SsUXHrledxw-2">
          <mxGeometry width="50" height="50" relative="1" as="geometry">
            <mxPoint x="480" y="140" as="sourcePoint"/>
            <mxPoint x="530" y="90" as="targetPoint"/>
            <Array as="points">
              <mxPoint x="780" y="91"/>
              <mxPoint x="780" y="-80"/>
              <mxPoint x="1630" y="-80"/>
            </Array>
          </mxGeometry>
        </mxCell>
        <mxCell id="dSkPaAIi-SsUXHrledxw-61" value="1" style="text;html=1;align=center;verticalAlign=middle;resizable=0;points=[];labelBackgroundColor=#ffffff;" vertex="1" connectable="0" parent="dSkPaAIi-SsUXHrledxw-47">
          <mxGeometry x="0.7331" y="2" relative="1" as="geometry">
            <mxPoint x="50" as="offset"/>
          </mxGeometry>
        </mxCell>
        <mxCell id="dSkPaAIi-SsUXHrledxw-48" value="" style="endArrow=classic;html=1;exitX=1;exitY=0.5;exitDx=0;exitDy=0;entryX=0.5;entryY=0;entryDx=0;entryDy=0;" edge="1" parent="1" source="4japjeftp3ALHUGcXtgO-41" target="4japjeftp3ALHUGcXtgO-61">
          <mxGeometry width="50" height="50" relative="1" as="geometry">
            <mxPoint x="400" y="260" as="sourcePoint"/>
            <mxPoint x="450" y="210" as="targetPoint"/>
            <Array as="points">
              <mxPoint x="810" y="117"/>
              <mxPoint x="810" y="-40"/>
              <mxPoint x="1100" y="-40"/>
            </Array>
          </mxGeometry>
        </mxCell>
        <mxCell id="dSkPaAIi-SsUXHrledxw-58" value="0..*" style="text;html=1;align=center;verticalAlign=middle;resizable=0;points=[];labelBackgroundColor=#ffffff;" vertex="1" connectable="0" parent="dSkPaAIi-SsUXHrledxw-48">
          <mxGeometry x="0.6852" y="1" relative="1" as="geometry">
            <mxPoint x="25.24" as="offset"/>
          </mxGeometry>
        </mxCell>
        <mxCell id="dSkPaAIi-SsUXHrledxw-49" value="" style="endArrow=classic;html=1;exitX=0;exitY=0.5;exitDx=0;exitDy=0;entryX=0.5;entryY=0;entryDx=0;entryDy=0;" edge="1" parent="1" source="dSkPaAIi-SsUXHrledxw-23" target="4japjeftp3ALHUGcXtgO-61">
          <mxGeometry width="50" height="50" relative="1" as="geometry">
            <mxPoint x="580" y="230" as="sourcePoint"/>
            <mxPoint x="630" y="180" as="targetPoint"/>
            <Array as="points">
              <mxPoint x="1360" y="91"/>
              <mxPoint x="1360" y="-20"/>
              <mxPoint x="1100" y="-20"/>
            </Array>
          </mxGeometry>
        </mxCell>
        <mxCell id="dSkPaAIi-SsUXHrledxw-64" value="0..*" style="text;html=1;align=center;verticalAlign=middle;resizable=0;points=[];labelBackgroundColor=#ffffff;" vertex="1" connectable="0" parent="dSkPaAIi-SsUXHrledxw-49">
          <mxGeometry x="0.8121" y="-1" relative="1" as="geometry">
            <mxPoint as="offset"/>
          </mxGeometry>
        </mxCell>
        <mxCell id="dSkPaAIi-SsUXHrledxw-50" value="" style="endArrow=classic;html=1;exitX=0;exitY=0.5;exitDx=0;exitDy=0;entryX=0.5;entryY=0;entryDx=0;entryDy=0;" edge="1" parent="1" source="dSkPaAIi-SsUXHrledxw-26" target="78961159f06e98e8-17">
          <mxGeometry width="50" height="50" relative="1" as="geometry">
            <mxPoint x="440" y="90" as="sourcePoint"/>
            <mxPoint x="490" y="40" as="targetPoint"/>
            <Array as="points">
              <mxPoint x="1380" y="143"/>
              <mxPoint x="1380" y="-100"/>
              <mxPoint x="645" y="-100"/>
            </Array>
          </mxGeometry>
        </mxCell>
        <mxCell id="dSkPaAIi-SsUXHrledxw-59" value="8" style="text;html=1;align=center;verticalAlign=middle;resizable=0;points=[];labelBackgroundColor=#ffffff;" vertex="1" connectable="0" parent="dSkPaAIi-SsUXHrledxw-50">
          <mxGeometry x="0.7181" y="-1" relative="1" as="geometry">
            <mxPoint x="-33" as="offset"/>
          </mxGeometry>
        </mxCell>
        <mxCell id="dSkPaAIi-SsUXHrledxw-51" value="" style="endArrow=classic;html=1;exitX=0;exitY=0.5;exitDx=0;exitDy=0;entryX=0.5;entryY=0;entryDx=0;entryDy=0;" edge="1" parent="1" source="4japjeftp3ALHUGcXtgO-64" target="78961159f06e98e8-17">
          <mxGeometry width="50" height="50" relative="1" as="geometry">
            <mxPoint x="430" y="250" as="sourcePoint"/>
            <mxPoint x="480" y="200" as="targetPoint"/>
            <Array as="points">
              <mxPoint x="890" y="91"/>
              <mxPoint x="890" y="-20"/>
              <mxPoint x="645" y="-20"/>
            </Array>
          </mxGeometry>
        </mxCell>
        <mxCell id="dSkPaAIi-SsUXHrledxw-60" value="1" style="text;html=1;align=center;verticalAlign=middle;resizable=0;points=[];labelBackgroundColor=#ffffff;" vertex="1" connectable="0" parent="dSkPaAIi-SsUXHrledxw-51">
          <mxGeometry x="0.6503" relative="1" as="geometry">
            <mxPoint x="-33.95" as="offset"/>
          </mxGeometry>
        </mxCell>
        <mxCell id="dSkPaAIi-SsUXHrledxw-53" value="" style="endArrow=classic;html=1;exitX=0;exitY=0.5;exitDx=0;exitDy=0;entryX=0.5;entryY=0;entryDx=0;entryDy=0;" edge="1" parent="1" source="dSkPaAIi-SsUXHrledxw-30" target="dSkPaAIi-SsUXHrledxw-2">
          <mxGeometry width="50" height="50" relative="1" as="geometry">
            <mxPoint x="490" y="10" as="sourcePoint"/>
            <mxPoint x="540" y="-40" as="targetPoint"/>
            <Array as="points">
              <mxPoint x="980" y="-319"/>
              <mxPoint x="980" y="-430"/>
              <mxPoint x="1220" y="-430"/>
              <mxPoint x="1220" y="-120"/>
              <mxPoint x="1630" y="-120"/>
            </Array>
          </mxGeometry>
        </mxCell>
        <mxCell id="dSkPaAIi-SsUXHrledxw-56" value="6" style="text;html=1;align=center;verticalAlign=middle;resizable=0;points=[];labelBackgroundColor=#ffffff;" vertex="1" connectable="0" parent="dSkPaAIi-SsUXHrledxw-53">
          <mxGeometry x="0.6729" y="-2" relative="1" as="geometry">
            <mxPoint x="78" y="18" as="offset"/>
          </mxGeometry>
        </mxCell>
        <mxCell id="dSkPaAIi-SsUXHrledxw-54" value="" style="endArrow=classic;html=1;exitX=0;exitY=0.5;exitDx=0;exitDy=0;entryX=0.5;entryY=0;entryDx=0;entryDy=0;" edge="1" parent="1" source="dSkPaAIi-SsUXHrledxw-31" target="4japjeftp3ALHUGcXtgO-61">
          <mxGeometry width="50" height="50" relative="1" as="geometry">
            <mxPoint x="500" y="20" as="sourcePoint"/>
            <mxPoint x="550" y="-30" as="targetPoint"/>
            <Array as="points">
              <mxPoint x="980" y="-293"/>
              <mxPoint x="980" y="-60"/>
              <mxPoint x="1100" y="-60"/>
            </Array>
          </mxGeometry>
        </mxCell>
        <mxCell id="dSkPaAIi-SsUXHrledxw-55" value="4" style="text;html=1;align=center;verticalAlign=middle;resizable=0;points=[];labelBackgroundColor=#ffffff;" vertex="1" connectable="0" parent="dSkPaAIi-SsUXHrledxw-54">
          <mxGeometry x="0.8024" relative="1" as="geometry">
            <mxPoint y="-16.409999999999997" as="offset"/>
          </mxGeometry>
        </mxCell>
        <mxCell id="dSkPaAIi-SsUXHrledxw-62" value="" style="endArrow=classic;html=1;exitX=0;exitY=0.5;exitDx=0;exitDy=0;entryX=0.5;entryY=0;entryDx=0;entryDy=0;" edge="1" parent="1" source="4japjeftp3ALHUGcXtgO-80" target="dSkPaAIi-SsUXHrledxw-2">
          <mxGeometry width="50" height="50" relative="1" as="geometry">
            <mxPoint x="1340" y="270" as="sourcePoint"/>
            <mxPoint x="1390" y="220" as="targetPoint"/>
            <Array as="points">
              <mxPoint x="890" y="142"/>
              <mxPoint x="890" y="550"/>
              <mxPoint x="1400" y="550"/>
              <mxPoint x="1400" y="-20"/>
              <mxPoint x="1630" y="-20"/>
            </Array>
          </mxGeometry>
        </mxCell>
        <mxCell id="dSkPaAIi-SsUXHrledxw-63" value="0..*" style="text;html=1;align=center;verticalAlign=middle;resizable=0;points=[];labelBackgroundColor=#ffffff;" vertex="1" connectable="0" parent="dSkPaAIi-SsUXHrledxw-62">
          <mxGeometry x="0.9296" y="-2" relative="1" as="geometry">
            <mxPoint x="20.709999999999997" y="-2" as="offset"/>
          </mxGeometry>
        </mxCell>
        <mxCell id="dSkPaAIi-SsUXHrledxw-65" value="&lt;h1&gt;Class Diagram&lt;/h1&gt;&lt;p&gt;In deze Class Diagram zie je de structuur van een aantal classes. deze classes zijn samen verantwoordelijk voor het gedrag van de treinen. Je begint boven aan het diagram bij de TrainBehaviour class. Deze maakt namelijk alle andere classes aan.&lt;/p&gt;" style="text;html=1;strokeColor=none;fillColor=none;spacing=5;spacingTop=-20;whiteSpace=wrap;overflow=hidden;rounded=0;" vertex="1" parent="1">
          <mxGeometry x="650" y="-430" width="290" height="290" as="geometry"/>
        </mxCell>
      </root>
    </mxGraphModel>
  </diagram>
</mxfile>
